<?xml version="1.0" encoding="UTF-8"?><svg id="Layer_1" xmlns="http://www.w3.org/2000/svg" viewBox="0 0 799.9 62.76"><rect x="696.69" y="50.28" width="12.49" height="12.49"/><polygon points="32.52 28.13 14.09 0 0 0 26.28 40.12 26.28 62.76 38.77 62.76 38.77 40.12 65.04 0 50.95 0 32.52 28.13"/><path d="M332.92,8.82c-1.53-1.72-3.54-3.07-6.03-4.04-2.5-.97-5.5-1.46-8.99-1.46h-36.63v59.43h12.49v-22.64h24.31c3.22,0,6.05-.51,8.49-1.54,2.44-1.03,4.45-2.4,6.03-4.12,1.58-1.72,2.75-3.67,3.49-5.87.75-2.19,1.13-4.45,1.13-6.78,0-2.5-.34-4.85-1-7.07-.67-2.22-1.76-4.19-3.29-5.91ZM322.1,28.84c-1.75,1.3-4.51,1.96-8.28,1.96h-20.06V12.65h20.98c1.28,0,2.51.14,3.7.42,1.19.28,2.26.76,3.21,1.46.94.69,1.69,1.64,2.25,2.83.55,1.19.83,2.68.83,4.45,0,3.39-.87,5.73-2.62,7.03Z"/><path d="M399.6,56.4c-.19-1.25-.31-2.39-.33-3.41-.03-1.03-.04-2.01-.04-2.96,0-4.66-.61-8.32-1.83-10.99-1.22-2.66-3.5-4.36-6.83-5.08v-.17c2.94-.94,5.31-2.63,7.12-5.08s2.71-5.52,2.71-9.24c0-2.44-.35-4.63-1.04-6.58-.69-1.94-1.82-3.63-3.37-5.08-1.55-1.44-3.64-2.55-6.24-3.33-2.61-.78-5.74-1.17-9.41-1.17h-37.62v59.43h12.49v-23.47h21.23c2.22,0,4.02.35,5.41,1.04,1.39.69,2.43,1.66,3.12,2.91.69,1.25,1.17,2.73,1.41,4.45.25,1.72.37,3.75.37,6.08,0,4.16.5,7.16,1.5,8.99h13.49c-.56-.78-1-1.72-1.33-2.83-.33-1.11-.6-2.29-.79-3.54ZM384.78,28.01c-1.75,1.3-4.43,1.96-8.03,1.96h-21.56V12.65h21.56c3.44,0,6.08.68,7.91,2.04,1.83,1.36,2.75,3.54,2.75,6.53,0,3.22-.87,5.48-2.62,6.78Z"/><path d="M467.34,9.28c-2.8-2.91-6.44-5.19-10.9-6.83-4.47-1.64-9.75-2.46-15.86-2.46s-11.32.82-15.82,2.46c-4.49,1.64-8.14,3.9-10.95,6.78-2.8,2.89-4.87,6.22-6.2,9.99-1.33,3.77-2,7.82-2,12.15s.67,8.37,2,12.11c1.33,3.75,3.41,7.08,6.24,9.99,2.83,2.91,6.48,5.19,10.95,6.83,4.47,1.64,9.72,2.46,15.77,2.46s11.39-.82,15.86-2.46c4.47-1.64,8.1-3.9,10.9-6.78,2.8-2.88,4.87-6.21,6.2-9.99,1.33-3.77,2-7.82,2-12.15s-.67-8.37-2-12.11c-1.33-3.75-3.4-7.07-6.2-9.99ZM456.73,47.4c-3.88,4.02-9.27,6.03-16.15,6.03s-12.27-2.01-16.15-6.03c-3.88-4.02-5.83-9.36-5.83-16.02s1.94-12,5.83-16.02c3.88-4.02,9.27-6.03,16.15-6.03s12.26,2.01,16.15,6.03c3.88,4.02,5.83,9.36,5.83,16.02s-1.94,12-5.83,16.02Z"/><path d="M510.79,39.62c0,2-.07,3.73-.21,5.2-.14,1.47-.51,2.86-1.12,4.16-.61,1.3-1.61,2.37-3,3.21-1.39.83-3.22,1.25-5.49,1.25-2.44,0-4.37-.4-5.79-1.21-1.41-.8-2.44-1.86-3.08-3.16-.64-1.3-1.04-2.68-1.21-4.12-.17-1.44-.25-3.19-.25-5.24h-12.49c0,3.05.17,5.77.5,8.16.33,2.39,1.22,4.73,2.66,7.03,1.44,2.3,3.77,4.19,6.99,5.66s7.49,2.21,12.82,2.21c4.38,0,8.06-.6,11.03-1.79,2.97-1.19,5.26-2.76,6.87-4.7,1.61-1.94,2.72-4.02,3.33-6.24.61-2.22.91-4.52.91-6.91V3.33h-12.49v36.29Z"/><polygon points="541 36.96 578.54 36.96 578.54 27.64 541 27.64 541 12.65 578.54 12.65 578.54 3.33 528.52 3.33 528.52 62.76 578.54 62.76 578.54 53.44 541 53.44 541 36.96"/><path d="M616.83,9.32c5.27,0,9.63,1.26,13.07,3.79,3.44,2.52,5.46,6.03,6.08,10.53h13.49c-.33-3.27-1.26-6.34-2.79-9.2-1.53-2.86-3.65-5.37-6.37-7.53-2.72-2.16-6.03-3.86-9.95-5.08-3.91-1.22-8.37-1.83-13.36-1.83-5.66,0-10.6.82-14.82,2.46-4.22,1.64-7.69,3.91-10.4,6.83-2.72,2.91-4.73,6.26-6.03,10.03-1.3,3.77-1.96,7.8-1.96,12.07s.65,8.3,1.96,12.07c1.3,3.77,3.29,7.12,5.95,10.03,2.66,2.91,5.99,5.19,9.99,6.83s8.6,2.46,13.82,2.46c5.88,0,10.92-.68,15.11-2.04,4.19-1.36,7.57-3.19,10.15-5.49,2.58-2.3,4.55-4.88,5.91-7.74,1.36-2.86,2.29-5.9,2.79-9.11h-13.49c-.28,1.78-.79,3.51-1.54,5.2-.75,1.69-1.84,3.3-3.29,4.83-1.44,1.53-3.29,2.75-5.54,3.66-2.25.92-4.9,1.37-7.95,1.37s-5.86-.5-8.41-1.5c-2.55-1-4.77-2.44-6.66-4.33-1.89-1.89-3.33-4.12-4.33-6.7s-1.5-5.4-1.5-8.45c0-7.49,1.84-13.22,5.54-17.19,3.69-3.97,8.53-5.95,14.53-5.95Z"/><polygon points="652.08 12.65 674.38 12.65 674.38 62.76 686.87 62.76 686.87 12.65 709.18 12.65 709.18 3.33 652.08 3.33 652.08 12.65"/><path d="M740.89,3.33l-26.47,59.43h13.49l6.16-14.73h27.97l6.24,14.73h13.9l-26.47-59.43h-14.82ZM737.81,38.71l10.32-25.05,10.15,25.05h-20.48Z"/><rect x="787.41" y="3.33" width="12.49" height="59.43"/></svg>